<svg id="Layer_5" data-name="Layer 5" xmlns="http://www.w3.org/2000/svg" xmlns:xlink="http://www.w3.org/1999/xlink" viewBox="0 0 512 512"><defs><style>.cls-1{fill:url(#linear-gradient);}.cls-2{fill:url(#linear-gradient-2);}.cls-3{fill:url(#linear-gradient-3);}.cls-4{fill:url(#linear-gradient-4);}.cls-5{fill:url(#linear-gradient-5);}.cls-6{fill:url(#linear-gradient-6);}.cls-7{fill:url(#linear-gradient-7);}.cls-8{fill:url(#linear-gradient-8);}.cls-9{fill:url(#linear-gradient-9);}.cls-10{fill:url(#linear-gradient-10);}.cls-11{fill:url(#linear-gradient-11);}.cls-12{fill:url(#linear-gradient-12);}</style><linearGradient id="linear-gradient" x1="200" y1="264" x2="312" y2="264" gradientUnits="userSpaceOnUse"><stop offset="0" stop-color="#3caae1"/><stop offset="1" stop-color="#203364"/></linearGradient><linearGradient id="linear-gradient-2" x1="168" y1="400" x2="344" y2="400" xlink:href="#linear-gradient"/><linearGradient id="linear-gradient-3" x1="16" y1="328" x2="176" y2="328" xlink:href="#linear-gradient"/><linearGradient id="linear-gradient-4" x1="16" y1="427.52" x2="178.56" y2="427.52" xlink:href="#linear-gradient"/><linearGradient id="linear-gradient-5" x1="331.68" y1="428.88" x2="496" y2="428.88" xlink:href="#linear-gradient"/><linearGradient id="linear-gradient-6" x1="16" y1="376" x2="176" y2="376" xlink:href="#linear-gradient"/><linearGradient id="linear-gradient-7" x1="16" y1="472" x2="176" y2="472" xlink:href="#linear-gradient"/><linearGradient id="linear-gradient-8" x1="336" y1="472" x2="496" y2="472" xlink:href="#linear-gradient"/><linearGradient id="linear-gradient-9" x1="336" y1="377.24" x2="496" y2="377.24" xlink:href="#linear-gradient"/><linearGradient id="linear-gradient-10" x1="312" y1="160" x2="472" y2="160" xlink:href="#linear-gradient"/><linearGradient id="linear-gradient-11" x1="40" y1="160" x2="200" y2="160" xlink:href="#linear-gradient"/><linearGradient id="linear-gradient-12" x1="176" y1="96" x2="336" y2="96" xlink:href="#linear-gradient"/></defs><path class="cls-1" d="M312,232l-24,72H224l-24-64,48-8,16,24,16-32Z"/><path class="cls-2" d="M176,374.8a88.39,88.39,0,0,1,7.36-12.8L224,304h64l40.64,58A88.39,88.39,0,0,1,336,374.8c5.52,15.68,6,17.52,7.52,27.68a73.92,73.92,0,0,1,.48,8.4A85,85,0,0,1,258.88,496h-5.76A84.56,84.56,0,0,1,193,471l-14.4-19L168,410.88a81.93,81.93,0,0,1,.72-10.88A84.33,84.33,0,0,1,176,374.8Z"/><path class="cls-3" d="M144,304h16a16,16,0,0,1,16,16v16a16,16,0,0,1-16,16H32a16,16,0,0,1-16-16V320a16,16,0,0,1,16-16H144Z"/><path class="cls-4" d="M168.72,400a81.93,81.93,0,0,0-.72,10.88L178.56,452l-5.28,3A16,16,0,0,0,160,448H32a16,16,0,0,1-16-16V416a16,16,0,0,1,16-16H168.72Z"/><path class="cls-5" d="M331.68,455A84.64,84.64,0,0,0,344,410.88a73.92,73.92,0,0,0-.48-8.4A16.18,16.18,0,0,1,352,400H480a16,16,0,0,1,16,16v16a16,16,0,0,1-16,16H352a16.1,16.1,0,0,0-14.72,9.76Z"/><path class="cls-6" d="M160,352a16,16,0,0,1,16,16v6.8a84.33,84.33,0,0,0-7.28,25.2H32a16,16,0,0,1-16-16V368a16,16,0,0,1,16-16H160Z"/><path class="cls-7" d="M144,448h16a16,16,0,0,1,13.28,7,15.79,15.79,0,0,1,2.72,9v16a16,16,0,0,1-16,16H32a16,16,0,0,1-16-16V464a16,16,0,0,1,16-16H144Z"/><path class="cls-8" d="M464,448h16a16,16,0,0,1,16,16v16a16,16,0,0,1-16,16H352a16,16,0,0,1-16-16V464a16,16,0,0,1,16-16H464Z"/><path class="cls-9" d="M343.52,402.48c-1.52-10.16-2-12-7.52-27.68V368a16,16,0,0,1,16-16H480a16,16,0,0,1,16,16v16a16,16,0,0,1-16,16H352a16.18,16.18,0,0,0-8.48,2.48Z"/><path class="cls-10" d="M392,80a80,80,0,1,1-80,80,72.65,72.65,0,0,1,.4-7.28,80,80,0,0,0,23.28-49.52A79.79,79.79,0,0,1,392,80Z"/><path class="cls-11" d="M199.6,152.72A72.65,72.65,0,0,1,200,160a80,80,0,1,1-23.68-56.8A80,80,0,0,0,199.6,152.72Z"/><path class="cls-12" d="M335.68,103.2a80,80,0,0,1-159.36,0A71.2,71.2,0,0,1,176,96a80,80,0,0,1,160,0A71.2,71.2,0,0,1,335.68,103.2Z"/><path d="M264,344H248v16a24,24,0,0,0,0,48h16a8,8,0,0,1,0,16H240v-8H224v24h24v16h16V440a24,24,0,0,0,0-48H248a8,8,0,0,1,0-16h24v8h16V360H264Z"/><path d="M112,216h16V200a24,24,0,0,0,0-48H112a8,8,0,0,1,0-16h24v8h16V120H128V104H112v16a24,24,0,0,0,0,48h16a8,8,0,0,1,0,16H104v-8H88v24h24Z"/><path d="M120,248a88.11,88.11,0,0,0,87.49-78.65,87.64,87.64,0,0,0,97,0,88,88,0,1,0,39-82.77,88,88,0,0,0-175,0A88,88,0,1,0,120,248Zm344-88a72,72,0,0,1-144,0c0-1.35.12-2.68.21-4a87.61,87.61,0,0,0,23-48.81A71.91,71.91,0,0,1,464,160ZM256,24a72,72,0,1,1-72,72A72.08,72.08,0,0,1,256,24ZM120,88a71.41,71.41,0,0,1,48.79,19.18,87.64,87.64,0,0,0,23,48.81c.09,1.33.21,2.66.21,4a72,72,0,1,1-72-72Z"/><path d="M256,152a32,32,0,0,0,32-32H272a16,16,0,0,1-32,0h16V104H240V88h16V72H240a16,16,0,0,1,32,0h16a32,32,0,0,0-64,0H208V88h16v16H208v16h16A32,32,0,0,0,256,152Z"/><path d="M381.76,152H368v16h16v16H368v16h16v16h16V200h16V184H400V168h16V152H402.24l28-35-12.5-10L392,139.19,366.25,107l-12.5,10Z"/><path d="M504,368a24,24,0,0,0-24-24H352a23.9,23.9,0,0,0-19.31,9.89l-35.83-51.18,25.46-76.37-46.61-11.66L263,240.09l-11.22-16.83L189.1,233.7,215,302.86l-35.71,51a23.34,23.34,0,0,0-1.56-1.89A23.81,23.81,0,0,0,184,336V320a24,24,0,0,0-24-24H32A24,24,0,0,0,8,320v16a23.86,23.86,0,0,0,6.24,16A23.86,23.86,0,0,0,8,368v16a23.86,23.86,0,0,0,6.24,16A23.86,23.86,0,0,0,8,416v16a23.86,23.86,0,0,0,6.24,16A23.86,23.86,0,0,0,8,464v16a24,24,0,0,0,24,24H160a24,24,0,0,0,24-24v-7a92.85,92.85,0,0,0,69.16,31h5.69A92.88,92.88,0,0,0,328,473v7a24,24,0,0,0,24,24H480a24,24,0,0,0,24-24V464a23.86,23.86,0,0,0-6.24-16A23.81,23.81,0,0,0,504,432V416a23.86,23.86,0,0,0-6.24-16A23.81,23.81,0,0,0,504,384V368Zm-152-8h8v16h16V360h16v16h16V360h16v16h16V360h16v16h16V360h8a8,8,0,0,1,8,8v16a8,8,0,0,1-8,8H352c-.65,0-1.3.09-1.94.14A92.07,92.07,0,0,0,344,373.2V368a8,8,0,0,1,8-8ZM244.21,240.74,265,271.91l19.3-38.59,17.39,4.34L282.23,296H229.54L210.9,246.3ZM32,392a8,8,0,0,1-8-8V368a8,8,0,0,1,8-8h8v16H56V360H72v16H88V360h16v16h16V360h16v16h16V360h8a8,8,0,0,1,8,8v5.21A92.08,92.08,0,0,0,162,392H32Zm-8-72a8,8,0,0,1,8-8h8v16H56V312H72v16H88V312h16v16h16V312h16v16h16V312h8a8,8,0,0,1,8,8v16a8,8,0,0,1-8,8H32a8,8,0,0,1-8-8ZM168,480a8,8,0,0,1-8,8H32a8,8,0,0,1-8-8V464a8,8,0,0,1,8-8h8v16H56V456H72v16H88V456h16v16h16V456h16v16h16V456h8a8,8,0,0,1,8,8Zm-8-40H32a8,8,0,0,1-8-8V416a8,8,0,0,1,8-8h8v16H56V408H72v16H88V408h16v16h16V408h16v16h16V408h8.1c0,.95-.1,1.89-.1,2.84a92.55,92.55,0,0,0,4.93,29.67A24.25,24.25,0,0,0,160,440Zm98.84,48h-5.69A77.16,77.16,0,0,1,190,366.59L228.17,312h55.67l38.22,54.59A77.17,77.17,0,0,1,258.84,488ZM352,410.84c0-.94-.08-1.89-.1-2.83,0,0,.06,0,.1,0h8v16h16V408h16v16h16V408h16v16h16V408h16v16h16V408h8a8,8,0,0,1,8,8v16a8,8,0,0,1-8,8H352a23.56,23.56,0,0,0-4.93.52A92.65,92.65,0,0,0,352,410.84ZM488,480a8,8,0,0,1-8,8H352a8,8,0,0,1-8-8V464a8,8,0,0,1,8-8h8v16h16V456h16v16h16V456h16v16h16V456h16v16h16V456h8a8,8,0,0,1,8,8Z"/></svg>