<svg id="Layer_1" data-name="Layer 1" xmlns="http://www.w3.org/2000/svg" xmlns:xlink="http://www.w3.org/1999/xlink" viewBox="0 0 512 512"><defs><style>.cls-1{fill:url(#linear-gradient);}.cls-2{fill:#2970d6;}.cls-3{fill:url(#linear-gradient-2);}.cls-4{fill:url(#linear-gradient-3);}.cls-5{fill:url(#linear-gradient-4);}.cls-6{fill:url(#linear-gradient-5);}.cls-7{fill:url(#linear-gradient-6);}.cls-8{fill:url(#linear-gradient-7);}.cls-9{fill:url(#linear-gradient-8);}.cls-10{fill:#18191b;}</style><linearGradient id="linear-gradient" x1="228.23" y1="146.65" x2="504.46" y2="146.65" gradientUnits="userSpaceOnUse"><stop offset="0" stop-color="#3caae1"/><stop offset="1" stop-color="#203364"/></linearGradient><linearGradient id="linear-gradient-2" x1="42.66" y1="259.4" x2="183.55" y2="259.4" xlink:href="#linear-gradient"/><linearGradient id="linear-gradient-3" x1="7.54" y1="402.45" x2="218.67" y2="402.45" xlink:href="#linear-gradient"/><linearGradient id="linear-gradient-4" x1="159.4" y1="402.45" x2="218.67" y2="402.45" xlink:href="#linear-gradient"/><linearGradient id="linear-gradient-5" x1="84.67" y1="402.45" x2="141.54" y2="402.45" xlink:href="#linear-gradient"/><linearGradient id="linear-gradient-6" x1="101.05" y1="402.45" x2="141.54" y2="402.45" xlink:href="#linear-gradient"/><linearGradient id="linear-gradient-7" x1="335.35" y1="402.45" x2="383.35" y2="402.45" xlink:href="#linear-gradient"/><linearGradient id="linear-gradient-8" x1="100.09" y1="77.08" x2="148.09" y2="77.08" xlink:href="#linear-gradient"/></defs><path class="cls-1" d="M504.46,146.66A138.12,138.12,0,1,1,366.34,8.54,138.11,138.11,0,0,1,504.46,146.66Z"/><path class="cls-2" d="M366.34,8.54q-6.09,0-12,.52a138.12,138.12,0,0,1,0,275.19q6,.51,12,.52a138.12,138.12,0,1,0,0-276.23Z"/><path class="cls-3" d="M76.81,328V261.21a36.29,36.29,0,0,1,72.58,0V328h34.16V261.21a70.45,70.45,0,0,0-140.89,0V328Z"/><path class="cls-4" d="M183.51,503H42.7A35.26,35.26,0,0,1,7.54,467.81V337.09A35.26,35.26,0,0,1,42.7,301.93H183.51a35.26,35.26,0,0,1,35.16,35.16V467.81A35.26,35.26,0,0,1,183.51,503Z"/><path class="cls-5" d="M183.51,301.93H159.4a35.26,35.26,0,0,1,35.16,35.16V467.81A35.26,35.26,0,0,1,159.4,503h24.11a35.26,35.26,0,0,0,35.16-35.15V337.09A35.26,35.26,0,0,0,183.51,301.93Z"/><path class="cls-6" d="M113.1,359.8a28.43,28.43,0,0,0-28.43,28.43v56.86h56.87V388.23A28.44,28.44,0,0,0,113.1,359.8Z"/><path class="cls-7" d="M113.1,359.8a28.24,28.24,0,0,0-12,2.68,28.44,28.44,0,0,1,16.38,25.75v56.86h24.11V388.23A28.44,28.44,0,0,0,113.1,359.8Z"/><path class="cls-8" d="M383.35,402.45a24,24,0,1,1-24-24A24,24,0,0,1,383.35,402.45Z"/><path class="cls-9" d="M148.09,77.08a24,24,0,1,1-24-24A24,24,0,0,1,148.09,77.08Z"/><path class="cls-10" d="M512,146.66C512,66.34,446.66,1,366.34,1A145.56,145.56,0,0,0,248.8,60.74a7,7,0,0,0-.93-.06H153c-.65,0-1.3,0-2,0a31.52,31.52,0,1,0-45.4,41.91,48.14,48.14,0,0,0-.35,5.76v75.24a78.07,78.07,0,0,0-70.17,77.58v33.87A42.75,42.75,0,0,0,0,337.09V467.81A42.74,42.74,0,0,0,42.7,510.5H183.51a42.75,42.75,0,0,0,42.7-42.69V424.7H337a31.52,31.52,0,1,0,36.48-50.41V292.13C450.52,288.38,512,224.56,512,146.66Zm-104,0c0,12.39-.6,24.5-1.74,36.11C394,184,380.66,184.7,366.34,184.7s-27.64-.7-39.9-1.93c-1.14-11.61-1.74-23.72-1.74-36.11s.6-24.43,1.75-36.12a413.4,413.4,0,0,1,79.8,0C407.39,122.14,408,134.26,408,146.66Zm13.52-34.25c47.72,7,75.42,22.38,75.42,34.25s-27.7,27.22-75.42,34.23c1-11.3,1.54-22.82,1.54-34.23S422.53,123.72,421.51,112.41ZM366.34,277.24c-9.42,0-19.77-13.25-27.67-35.45A232.37,232.37,0,0,1,328.28,198c12.26,1.13,25,1.73,38.06,1.73s25.82-.6,38.07-1.73A232.37,232.37,0,0,1,394,241.79C386.12,264,375.77,277.24,366.34,277.24Zm-55.16-96.35c-47.72-7-75.42-22.37-75.42-34.23s27.69-27.21,75.38-34.24c-1,11.15-1.5,22.65-1.5,34.24C309.64,158.07,310.16,169.59,311.18,180.89ZM266.32,186a262.82,262.82,0,0,0,46.59,10.26c4.27,31.64,12.66,60.2,24.88,77.79a131,131,0,0,1-99.31-100.82C245.18,177.69,254.2,182,266.32,186Zm128.59,88c12.21-17.59,20.6-46.15,24.86-77.79A262.74,262.74,0,0,0,466.37,186c12.11-4,21.14-8.35,27.83-12.77A131,131,0,0,1,394.91,274.09Zm99.29-154c-6.69-4.43-15.72-8.78-27.83-12.78A263.67,263.67,0,0,0,419.78,97c-4.27-31.63-12.66-60.19-24.87-77.78A131,131,0,0,1,494.2,120.05ZM337.82,19.21c-4.32,6.2-8.57,14.36-12.55,25.07a7.53,7.53,0,1,0,14.12,5.25c7.79-21,17.86-33.46,26.95-33.46,9.43,0,19.78,13.25,27.68,35.45a231.6,231.6,0,0,1,10.39,43.75c-12.25-1.13-25-1.73-38.06-1.73s-25.8.6-38,1.73c.83-5.7,1.8-11.25,2.91-16.59a7.54,7.54,0,1,0-14.76-3.06c-1.42,6.85-2.62,14-3.61,21.4a263,263,0,0,0-46.53,10.25c-12.12,4-21.14,8.35-27.83,12.78A131,131,0,0,1,337.82,19.21ZM124.09,60.61a16.47,16.47,0,1,1-16.46,16.47A16.49,16.49,0,0,1,124.09,60.61Zm-11,137.69A63,63,0,0,1,176,261.21v33.18H156.93V261.21a43.83,43.83,0,0,0-87.65,0v33.18H50.19V261.21A63,63,0,0,1,113.1,198.3Zm28.76,96.09H84.34V261.21a28.76,28.76,0,0,1,57.52,0Zm84.35,115.24V387.35a7.54,7.54,0,0,0-15.07,0v80.46a27.65,27.65,0,0,1-27.63,27.62H42.7a27.65,27.65,0,0,1-27.63-27.62V337.09A27.66,27.66,0,0,1,42.7,309.46H183.51a27.66,27.66,0,0,1,27.63,27.63v20a7.54,7.54,0,0,0,15.07,0v-20a42.76,42.76,0,0,0-35.12-42V261.21a78.09,78.09,0,0,0-70.73-77.63V108.39h0a30.62,30.62,0,0,0,3.73.23,31.58,31.58,0,0,0,31.54-31.53c0-.45,0-.89,0-1.33h83.57a144.65,144.65,0,0,0-18.47,70.91c0,77.66,61.1,141.32,137.76,145.43v78.85a31.52,31.52,0,0,0-29.8,38.69Zm133.14,9.28a16.47,16.47,0,1,1,4.82-32.21h0a16.46,16.46,0,0,1-4.85,32.2Z"/><path class="cls-10" d="M113.1,352.27a36,36,0,0,0-36,36v56.86a7.54,7.54,0,0,0,7.53,7.54h56.87a7.54,7.54,0,0,0,7.53-7.54V388.23A36,36,0,0,0,113.1,352.27ZM134,437.56H92.21V388.23a20.9,20.9,0,1,1,41.79,0Z"/></svg>