<svg id="Capa_1" data-name="Capa 1" xmlns="http://www.w3.org/2000/svg" xmlns:xlink="http://www.w3.org/1999/xlink" viewBox="0 0 512 512"><defs><style>.cls-1{fill:url(#linear-gradient);}.cls-2{fill:url(#linear-gradient-2);}.cls-3{fill:url(#linear-gradient-3);}.cls-4{fill:url(#linear-gradient-4);}.cls-5{fill:#3caae1;}.cls-6{fill:url(#linear-gradient-5);}</style><linearGradient id="linear-gradient" y1="302.49" x2="512" y2="302.49" gradientUnits="userSpaceOnUse"><stop offset="0" stop-color="#17ffff"/><stop offset="0" stop-color="#174898"/><stop offset="1" stop-color="#3caae1"/></linearGradient><linearGradient id="linear-gradient-2" x1="137.35" y1="306.55" x2="312" y2="306.55" xlink:href="#linear-gradient"/><linearGradient id="linear-gradient-3" x1="210.88" y1="249.38" x2="457.71" y2="249.38" gradientUnits="userSpaceOnUse"><stop offset="0" stop-color="#17ffff"/><stop offset="0" stop-color="#3caae1"/><stop offset="1" stop-color="#203364"/></linearGradient><linearGradient id="linear-gradient-4" y1="302.48" x2="68.68" y2="302.48" gradientUnits="userSpaceOnUse"><stop offset="0" stop-color="#17ffff"/><stop offset="0" stop-color="#174898"/><stop offset="1"/></linearGradient><linearGradient id="linear-gradient-5" x1="186.96" y1="95.55" x2="353.9" y2="95.55" gradientUnits="userSpaceOnUse"><stop offset="0" stop-color="#17ffff"/><stop offset="0" stop-color="#3caae1"/><stop offset="0" stop-color="#174898"/><stop offset="1" stop-color="#203364"/></linearGradient></defs><g id="_Grup_" data-name="&lt;Grup&gt;"><path class="cls-1" d="M474.57,125.05A37.43,37.43,0,0,1,512,162.48v280a37.43,37.43,0,0,1-37.43,37.43H37.43A37.43,37.43,0,0,1,0,442.5v-280a37.43,37.43,0,0,1,37.43-37.43Z"/><path class="cls-2" d="M212.74,192a118.67,118.67,0,1,0,97.69,216L312,338.07,243.1,192Z"/><path class="cls-3" d="M457.45,325.61,442.78,153.4A69.53,69.53,0,0,0,367.59,90L274.52,98a69.52,69.52,0,0,0-63.38,75.19l14.67,172.21A69.55,69.55,0,0,0,301,408.74l93.08-7.94a69.52,69.52,0,0,0,63.37-75.19ZM336.69,181.11a28.17,28.17,0,1,1,25.68-30.46A28.15,28.15,0,0,1,336.69,181.11Z"/><path class="cls-4" d="M68.68,479.92H37.43A37.43,37.43,0,0,1,0,442.49v-280A37.43,37.43,0,0,1,37.43,125H68.68a37.43,37.43,0,0,0-37.43,37.43v280A37.43,37.43,0,0,0,68.68,479.92Z"/><path class="cls-5" d="M256.77,343.5,242.22,170.34c-3-35.37,20.54-66.81,53.83-74.22L274.52,98a69.52,69.52,0,0,0-63.38,75.19l14.67,172.2A69.55,69.55,0,0,0,301,408.73l18.08-1.54c-32.64-3.05-59.42-29.43-62.31-63.69Z"/><path class="cls-6" d="M337.28,159a7.57,7.57,0,0,1-6.67-11.16,67.6,67.6,0,0,0,7.31-21.75,68.64,68.64,0,0,0,.83-10.57,67.44,67.44,0,0,0-3.33-20.94c-9.11-27.89-35.84-47.38-65-47.38a68.25,68.25,0,0,0-67.76,77,7.58,7.58,0,0,1-15,1.91,83.76,83.76,0,0,1,82.79-94,82.56,82.56,0,0,1,49.46,16.39,84.89,84.89,0,0,1,29.94,41.45,82.62,82.62,0,0,1,4.07,25.63,83.68,83.68,0,0,1-1,12.9A82.73,82.73,0,0,1,344,155a7.54,7.54,0,0,1-6.67,4Z"/><path class="cls-5" d="M301.27,354.42a7.48,7.48,0,0,1-3.59-.91,7.57,7.57,0,0,1-3.07-10.26l71-131.53a7.57,7.57,0,1,1,13.33,7.19l-71,131.53A7.57,7.57,0,0,1,301.27,354.42Z"/><path class="cls-5" d="M290.4,258.66a29.2,29.2,0,1,1,2.5-.11C292.06,258.62,291.23,258.66,290.4,258.66Zm0-43.16c-.4,0-.8,0-1.2.05a14,14,0,1,0,1.2-.05Z"/><path class="cls-5" d="M387.28,361.13a29.2,29.2,0,1,1,2.52-.11c-.84.07-1.69.11-2.52.11Zm.07-43.16c-.4,0-.81,0-1.21,0a14,14,0,1,0,1.21,0Z"/></g></svg>