<svg id="Layer_5" data-name="Layer 5" xmlns="http://www.w3.org/2000/svg" xmlns:xlink="http://www.w3.org/1999/xlink" viewBox="0 0 496 496"><defs><style>.cls-1{fill:url(#linear-gradient);}.cls-2{fill:url(#linear-gradient-2);}.cls-3{fill:url(#linear-gradient-3);}.cls-4{fill:url(#linear-gradient-4);}.cls-5{fill:url(#linear-gradient-5);}.cls-6{fill:url(#linear-gradient-6);}.cls-7{fill:url(#linear-gradient-7);}.cls-8{fill:url(#linear-gradient-8);}.cls-9{fill:url(#linear-gradient-9);}.cls-10{fill:url(#linear-gradient-10);}.cls-11{fill:url(#linear-gradient-11);}.cls-12{fill:url(#linear-gradient-12);}.cls-13{fill:url(#linear-gradient-13);}.cls-14{fill:url(#linear-gradient-14);}.cls-15{fill:url(#linear-gradient-15);}.cls-16{fill:url(#linear-gradient-16);}.cls-17{fill:url(#linear-gradient-17);}.cls-18{fill:url(#linear-gradient-18);}.cls-19{fill:url(#linear-gradient-19);}.cls-20{fill:url(#linear-gradient-20);}.cls-21{fill:url(#linear-gradient-21);}.cls-22{fill:url(#linear-gradient-22);}</style><linearGradient id="linear-gradient" x1="408" y1="368" x2="488" y2="368" gradientUnits="userSpaceOnUse"><stop offset="0" stop-color="#3caae1"/><stop offset="1" stop-color="#203364"/></linearGradient><linearGradient id="linear-gradient-2" y1="464" y2="464" xlink:href="#linear-gradient"/><linearGradient id="linear-gradient-3" x1="248" y1="464" x2="328" y2="464" xlink:href="#linear-gradient"/><linearGradient id="linear-gradient-4" x1="248" x2="328" xlink:href="#linear-gradient"/><linearGradient id="linear-gradient-5" x1="16" y1="464" x2="96" y2="464" xlink:href="#linear-gradient"/><linearGradient id="linear-gradient-6" x1="16" x2="96" xlink:href="#linear-gradient"/><linearGradient id="linear-gradient-7" x1="16" y1="272" x2="96" y2="272" xlink:href="#linear-gradient"/><linearGradient id="linear-gradient-8" x1="232.88" y1="184" x2="496" y2="184" xlink:href="#linear-gradient"/><linearGradient id="linear-gradient-9" x1="16" y1="120" x2="288" y2="120" xlink:href="#linear-gradient"/><linearGradient id="linear-gradient-10" x1="56" y1="152" x2="168" y2="152" xlink:href="#linear-gradient"/><linearGradient id="linear-gradient-11" x1="344" y1="216" x2="456" y2="216" xlink:href="#linear-gradient"/><linearGradient id="linear-gradient-12" x1="72" y1="72" x2="136" y2="72" xlink:href="#linear-gradient"/><linearGradient id="linear-gradient-13" x1="360" y1="136" x2="424" y2="136" xlink:href="#linear-gradient"/><linearGradient id="linear-gradient-14" x1="184" y1="48" x2="264" y2="48" xlink:href="#linear-gradient"/><linearGradient id="linear-gradient-15" x1="184" y1="80" x2="264" y2="80" xlink:href="#linear-gradient"/><linearGradient id="linear-gradient-16" x1="216" y1="112" x2="232" y2="112" xlink:href="#linear-gradient"/><linearGradient id="linear-gradient-17" x1="248" y1="112" x2="264" y2="112" xlink:href="#linear-gradient"/><linearGradient id="linear-gradient-18" x1="184" y1="112" x2="200" y2="112" xlink:href="#linear-gradient"/><linearGradient id="linear-gradient-19" x1="8" y1="256" x2="504" y2="256" xlink:href="#linear-gradient"/><linearGradient id="linear-gradient-20" x1="40" y1="464" x2="72" y2="464" xlink:href="#linear-gradient"/><linearGradient id="linear-gradient-21" x1="40" x2="72" xlink:href="#linear-gradient"/><linearGradient id="linear-gradient-22" x1="40" y1="272" x2="72" y2="272" xlink:href="#linear-gradient"/></defs><path class="cls-1" d="M488,344v48H408V344Z" transform="translate(-8 -8)"/><path class="cls-2" d="M488,440v48H408V440h80Z" transform="translate(-8 -8)"/><path class="cls-3" d="M328,464v24H248V440h80Z" transform="translate(-8 -8)"/><path class="cls-4" d="M328,368v24H248V344h80Z" transform="translate(-8 -8)"/><path class="cls-5" d="M16,496V432H96v64Z" transform="translate(-8 -8)"/><path class="cls-6" d="M16,400V336H96v64Z" transform="translate(-8 -8)"/><path class="cls-7" d="M16,304V240H96v64Z" transform="translate(-8 -8)"/><path class="cls-8" d="M487.12,88.88A30.1,30.1,0,0,0,465.68,80H284.48L275,165a30.24,30.24,0,0,1-30.08,27h-12L237,229a30.24,30.24,0,0,0,30.08,27H280v20.72a11.18,11.18,0,0,0,8.16,10.8,9.81,9.81,0,0,0,3.12.48,11.32,11.32,0,0,0,8-3.28L328,256l128-.16A30.3,30.3,0,0,0,483,229l12.88-115.36c.08-1.12.16-2.24.16-3.36A30.1,30.1,0,0,0,487.12,88.88Z" transform="translate(-8 -8)"/><path class="cls-9" d="M279.12,24.88A30.1,30.1,0,0,0,257.68,16H46.32A30.35,30.35,0,0,0,16,46.32c0,1.12.08,2.24.16,3.36L29,165a30.3,30.3,0,0,0,27,26.8L168,192l28.72,28.72a11.31,11.31,0,0,0,19.28-8V192h28.88A30.24,30.24,0,0,0,275,165l9.52-85,3.36-30.32c.08-1.12.16-2.24.16-3.36a30.1,30.1,0,0,0-8.88-21.44Z" transform="translate(-8 -8)"/><path class="cls-10" d="M168,168v24H59.12c-1,0-2.08-.08-3.12-.16V168a56,56,0,0,1,112,0Z" transform="translate(-8 -8)"/><path class="cls-11" d="M456,232v23.84c-1,.08-2.08.16-3.12.16H344V232a56,56,0,0,1,112,0Z" transform="translate(-8 -8)"/><circle class="cls-12" cx="104" cy="72" r="32"/><circle class="cls-13" cx="392" cy="136" r="32"/><path class="cls-14" d="M184,40h80V56H184Z" transform="translate(-8 -8)"/><path class="cls-15" d="M184,72h80V88H184Z" transform="translate(-8 -8)"/><path class="cls-16" d="M216,104h16v16H216Z" transform="translate(-8 -8)"/><path class="cls-17" d="M248,104h16v16H248Z" transform="translate(-8 -8)"/><path class="cls-18" d="M184,104h16v16H184Z" transform="translate(-8 -8)"/><path class="cls-19" d="M305,290.34,331.31,264H452.86A38.31,38.31,0,0,0,491,229.91l12.82-115.34a40.2,40.2,0,0,0,.23-4.25A38.36,38.36,0,0,0,465.68,72H293.38l2.39-21.44a39.87,39.87,0,0,0,.23-4.24A38.36,38.36,0,0,0,257.68,8H46.32A38.36,38.36,0,0,0,8,46.32a39.68,39.68,0,0,0,.23,4.23L21.05,165.91A38.29,38.29,0,0,0,59.14,200H136v64H104V232H8v80h96V280h32v80H104V328H8v80h96V376h32v80H104V424H8v80h96V472h48V376h88v24h40v32H240v64h96V472h64v24h96V432H456V400h40V336H400v24H336V336H296V295.34a19.28,19.28,0,0,0,9-5ZM88,296H24V248H88Zm0,96H24V344H88Zm0,96H24V440H88ZM376,144a24,24,0,1,1,24,24A24,24,0,0,1,376,144Zm72,104H352V232a48,48,0,0,1,96,0ZM291.61,88H465.68a22.29,22.29,0,0,1,22.18,24.78L475,228.14A22.23,22.23,0,0,1,464,245V232a64,64,0,0,0-37.56-58.22,40,40,0,1,0-52.87,0A64,64,0,0,0,336,232v16H324.69l-31,31c-1.91,1.91-5.66.36-5.66-2.34V248H267.14A22.3,22.3,0,0,1,245,228.14L241.83,200h3A38.31,38.31,0,0,0,283,165.91ZM37,164.14,24.14,48.78A22.29,22.29,0,0,1,46.32,24H257.68a22.29,22.29,0,0,1,22.18,24.78L267,164.14A22.29,22.29,0,0,1,244.86,184H208v28.69c0,2.7-3.76,4.25-5.66,2.34L176,188.69V168a64,64,0,0,0-37.56-58.22,40,40,0,1,0-52.88,0A64,64,0,0,0,48,168v13a22.24,22.24,0,0,1-11-16.84ZM88,80a24,24,0,1,1,24,24A24,24,0,0,1,88,80Zm72,104H64V168a48,48,0,0,1,96,0ZM320,480H256V448h64Zm160,0H416V448h64ZM416,352h64v32H416Zm-16,24v24h40v32H400v24H336V432H296V400h40V376Zm-80,8H256V352h64Zm-80-48v24H152V200h12.69L191,226.34a19.32,19.32,0,0,0,33-13.65V200h1.73l3.32,29.91A38.29,38.29,0,0,0,267.14,264H272v12.69a19.25,19.25,0,0,0,8,15.57V336Z" transform="translate(-8 -8)"/><path class="cls-20" d="M40,456H72v16H40Z" transform="translate(-8 -8)"/><path class="cls-21" d="M40,360H72v16H40Z" transform="translate(-8 -8)"/><path class="cls-22" d="M40,264H72v16H40Z" transform="translate(-8 -8)"/></svg>