<?xml version="1.0" encoding="utf-8"?>
<!-- Generator: Adobe Illustrator 24.1.2, SVG Export Plug-In . SVG Version: 6.00 Build 0)  -->
<svg version="1.1" id="Layer_1" xmlns="http://www.w3.org/2000/svg" xmlns:xlink="http://www.w3.org/1999/xlink" x="0px" y="0px"
	 viewBox="0 0 464 464" style="enable-background:new 0 0 464 464;" xml:space="preserve">
<style type="text/css">
	.st0{fill:url(#SVGID_1_);}
	.st1{fill:url(#SVGID_2_);}
	.st2{fill:#3086CD;}
	.st3{fill:#3CAAE1;}
	.st4{fill:url(#SVGID_3_);}
	.st5{fill:#203364;}
	.st6{fill:url(#SVGID_4_);}
	.st7{fill:url(#SVGID_5_);}
	.st8{fill:url(#SVGID_6_);}
	.st9{fill:url(#SVGID_7_);}
	.st10{fill:url(#SVGID_8_);}
	.st11{fill:#FEC9A3;}
	.st12{fill:url(#SVGID_9_);}
	.st13{fill:#4DB7E5;}
	.st14{fill:#79C6E8;}
	.st15{fill:url(#SVGID_10_);}
</style>
<linearGradient id="SVGID_1_" gradientUnits="userSpaceOnUse" x1="47.9996" y1="284.0034" x2="431.9962" y2="284.0034">
	<stop  offset="0" style="stop-color:#3CAAE1"/>
	<stop  offset="1" style="stop-color:#203364"/>
</linearGradient>
<path class="st0" d="M80,136h320c17.7,0,32,14.3,32,32v232c0,17.7-14.3,32-32,32H80c-17.7,0-32-14.3-32-32V168
	C48,150.3,62.3,136,80,136z"/>
<linearGradient id="SVGID_2_" gradientUnits="userSpaceOnUse" x1="79.9993" y1="284.0034" x2="399.9965" y2="284.0034">
	<stop  offset="0" style="stop-color:#3CAAE1"/>
	<stop  offset="1" style="stop-color:#203364"/>
</linearGradient>
<path class="st1" d="M80,168h320v232H80V168z"/>
<path class="st2" d="M136,400h264V168h-32L136,400z"/>
<path class="st3" d="M336,264H144v-32l96-32l96,32V264z"/>
<linearGradient id="SVGID_3_" gradientUnits="userSpaceOnUse" x1="231.998" y1="232.0039" x2="247.9978" y2="232.0039">
	<stop  offset="7.355657e-02" style="stop-color:#3CAAE1"/>
	<stop  offset="1" style="stop-color:#203364"/>
</linearGradient>
<path class="st4" d="M232,224h16v16h-16V224z"/>
<path class="st5" d="M144,336h192v32H144V336z"/>
<linearGradient id="SVGID_4_" gradientUnits="userSpaceOnUse" x1="159.9986" y1="300.0033" x2="191.9983" y2="300.0033">
	<stop  offset="7.355657e-02" style="stop-color:#3CAAE1"/>
	<stop  offset="1" style="stop-color:#203364"/>
</linearGradient>
<path class="st6" d="M160,264h32v72h-32V264z"/>
<linearGradient id="SVGID_5_" gradientUnits="userSpaceOnUse" x1="223.998" y1="300.0033" x2="255.9977" y2="300.0033">
	<stop  offset="0" style="stop-color:#3CAAE1"/>
	<stop  offset="1" style="stop-color:#203364"/>
</linearGradient>
<path class="st7" d="M224,264h32v72h-32V264z"/>
<linearGradient id="SVGID_6_" gradientUnits="userSpaceOnUse" x1="287.9975" y1="300.0033" x2="319.9972" y2="300.0033">
	<stop  offset="0" style="stop-color:#3CAAE1"/>
	<stop  offset="1" style="stop-color:#203364"/>
</linearGradient>
<path class="st8" d="M288,264h32v72h-32V264z"/>
<g>
	<path class="st3" d="M160,264h32v24h-32V264z"/>
	<path class="st3" d="M224,264h32v24h-32V264z"/>
	<path class="st3" d="M288,264h32v24h-32V264z"/>
</g>
<linearGradient id="SVGID_7_" gradientUnits="userSpaceOnUse" x1="0" y1="112.005" x2="223.998" y2="112.005">
	<stop  offset="0" style="stop-color:#3CAAE1"/>
	<stop  offset="1" style="stop-color:#203364"/>
</linearGradient>
<path class="st9" d="M224,112c0,61.9-50.1,112-112,112S0,173.9,0,112C0,50.1,50.1,0,112,0S224,50.1,224,112z"/>
<linearGradient id="SVGID_8_" gradientUnits="userSpaceOnUse" x1="37.2731" y1="131.7016" x2="223.9456" y2="131.7016">
	<stop  offset="0" style="stop-color:#3CAAE1"/>
	<stop  offset="1" style="stop-color:#203364"/>
</linearGradient>
<path class="st10" d="M197.3,39.5C167,127.6,91.7,173.2,37.3,195.3c43.8,39.4,110.6,38,152.8-3.1C232.3,151.1,235.4,84.4,197.3,39.5
	z"/>
<path class="st11" d="M450.7,360.2c-4.6-0.8-9.4,0.5-13,3.5c-3.6,3-5.7,7.5-5.7,12.2c0-8.8-7.2-16-16-16c-8.8,0-16,7.2-16,16
	c0-8.8-7.2-16-16-16s-16,7.2-16,16v-63.1c0.2-8-5.4-15.1-13.3-16.6c-4.6-0.8-9.4,0.5-13,3.5s-5.7,7.5-5.7,12.2v112l-33.4-20
	c-4.1-2.5-9.3-2.7-13.6-0.5l-1.3,0.6c-4.4,2.2-7.4,6.6-7.8,11.5c-0.4,4.9,1.8,9.7,5.9,12.6L336,464h128v-87.1
	C464.2,368.8,458.6,361.8,450.7,360.2z"/>
<linearGradient id="SVGID_9_" gradientUnits="userSpaceOnUse" x1="303.9973" y1="44.0056" x2="447.996" y2="44.0056">
	<stop  offset="7.355657e-02" style="stop-color:#3CAAE1"/>
	<stop  offset="1" style="stop-color:#203364"/>
</linearGradient>
<path class="st12" d="M448,72l-9.4,3.7c-19.9,8-41.8,9.4-62.6,4.2c-20.8-5.2-42.7-3.7-62.6,4.2L304,88V16l9.4-3.8
	c19.9-8,41.8-9.4,62.6-4.2c20.8,5.2,42.7,3.7,62.6-4.2L448,0V72z"/>
<path class="st13" d="M232,48h16v16h-16V48z"/>
<path class="st13" d="M264,48h16v16h-16V48z"/>
<path class="st13" d="M344,96h16v16h-16V96z"/>
<path class="st14" d="M167.7,120h55.9c0.2-2.7,0.4-5.3,0.4-8c0-2.7-0.2-5.3-0.4-8h-55.9c-0.5-13.5-2.1-26.8-5-40h50.3
	c-2.6-5.6-5.7-10.9-9.2-16h-45.3c-4.7-15.5-11.1-30.5-19.2-44.5c-7-1.7-14.1-2.8-21.3-3.2l3.2,4.1C130,18,136.9,32.6,141.9,48H82.2
	c5-15.6,12-30.4,20.9-44.2l1.9-3.5C98,0.8,91.2,1.9,84.6,3.6C76.4,17.6,70,32.5,65.3,48H20.2c-3.5,5.1-6.6,10.4-9.2,16h50.2
	c-2.9,13.2-4.5,26.5-5,40H0.4c-0.2,2.7-0.4,5.3-0.4,8c0,2.7,0.2,5.3,0.4,8h55.8c0.4,13.5,2.1,26.8,5,40H10.9
	c2.6,5.6,5.7,10.9,9.2,16h45.2c4.7,15.5,11.1,30.5,19.3,44.5c6.6,1.7,13.4,2.7,20.2,3.2l-1.6-3.2c-0.1-0.3-0.3-0.5-0.4-0.8
	C94,206,87,191.4,82.1,176h59.8c-4.9,15.1-11.7,29.5-20.2,42.9l-4.8,4.8c7.6-0.3,15.1-1.4,22.5-3.3c8.1-14,14.6-28.9,19.2-44.5h45.2
	c3.5-5.1,6.6-10.4,9.2-16h-50.3C165.7,146.8,167.3,133.5,167.7,120z M77.6,64h68.8c3.1,13.1,4.9,26.5,5.4,40H72.2
	C72.7,90.5,74.5,77.1,77.6,64z M146.4,160H77.6c-3.1-13.1-4.9-26.5-5.4-40h79.7C151.4,133.5,149.5,146.9,146.4,160L146.4,160z"/>
<linearGradient id="SVGID_10_" gradientUnits="userSpaceOnUse" x1="352.2547" y1="41.5269" x2="447.996" y2="41.5269">
	<stop  offset="7.355657e-02" style="stop-color:#3CAAE1"/>
	<stop  offset="1" style="stop-color:#203364"/>
</linearGradient>
<path class="st15" d="M438.6,3.8c-13.1,5.2-27.2,7.7-41.3,7.2l-45,66c8,0.1,16,1.1,23.7,3c20.8,5.2,42.7,3.7,62.6-4.2L448,72V0
	L438.6,3.8z"/>
</svg>
