<?xml version="1.0" encoding="utf-8"?>
<!-- Generator: Adobe Illustrator 24.1.2, SVG Export Plug-In . SVG Version: 6.00 Build 0)  -->
<svg version="1.1" id="Capa_1" xmlns="http://www.w3.org/2000/svg" xmlns:xlink="http://www.w3.org/1999/xlink" x="0px" y="0px"
	 viewBox="0 0 512 512" style="enable-background:new 0 0 512 512;" xml:space="preserve">
<style type="text/css">
	.st0{fill:url(#SVGID_1_);}
	.st1{fill:url(#SVGID_2_);}
	.st2{fill:url(#SVGID_3_);}
	.st3{fill:url(#SVGID_4_);}
	.st4{fill:url(#SVGID_5_);}
	.st5{fill:url(#SVGID_6_);}
	.st6{font-family:'ArialMT';}
	.st7{font-size:12px;}
	.st8{fill:url(#SVGID_7_);}
	.st9{fill:url(#SVGID_8_);}
	.st10{fill:url(#SVGID_9_);}
	.st11{fill:url(#SVGID_10_);}
	.st12{fill:url(#SVGID_11_);}
	.st13{fill:url(#SVGID_12_);}
	.st14{fill:url(#SVGID_13_);}
	.st15{fill:url(#SVGID_14_);}
	.st16{fill:url(#SVGID_15_);}
	.st17{fill:url(#SVGID_16_);}
	.st18{fill:url(#SVGID_17_);}
	.st19{fill:url(#SVGID_18_);}
	.st20{fill:url(#SVGID_19_);}
</style>
<g>
	<linearGradient id="SVGID_1_" gradientUnits="userSpaceOnUse" x1="313.9" y1="113.5755" x2="501.6" y2="113.5755">
		<stop  offset="0" style="stop-color:#3CAAE1"/>
		<stop  offset="1" style="stop-color:#203364"/>
	</linearGradient>
	<path class="st0" d="M475.5,0H339.9c-14.4,0-26,11.6-26,26v135.6c0,14.4,11.6,26,26,26h24.3c7.1,0,12.8,5.7,12.8,12.8v21.9
		c0,4.6,5.8,6.6,8.7,3l25.6-32.9c2.3-3,5.9-4.8,9.8-4.8h54.5c14.4,0,26-11.6,26-26V26C501.5,11.6,489.8,0,475.5,0L475.5,0z"/>
	<linearGradient id="SVGID_2_" gradientUnits="userSpaceOnUse" x1="447.4" y1="93.8" x2="501.5" y2="93.8">
		<stop  offset="0" style="stop-color:#3CAAE1"/>
		<stop  offset="1" style="stop-color:#203364"/>
	</linearGradient>
	<path class="st1" d="M475.5,0h-28.1c14.4,0,26,11.6,26,26v135.6c0,14.4-11.6,26-26,26h28.1c14.4,0,26-11.6,26-26V26
		C501.5,11.6,489.8,0,475.5,0z"/>
	<linearGradient id="SVGID_3_" gradientUnits="userSpaceOnUse" x1="33.3" y1="402.2" x2="318.0345" y2="402.2">
		<stop  offset="0" style="stop-color:#3CAAE1"/>
		<stop  offset="1" style="stop-color:#203364"/>
	</linearGradient>
	<path class="st2" d="M307.2,512H33.3l3.8-51.7c2.3-31.7,26.1-57.5,57.5-62.5l21.7-3.4c11-1.7,19.1-11.2,19.1-22.4v-79.6h81.4V372
		c0,11.2,8.1,20.7,19.1,22.4l21.7,3.4c31.4,4.9,55.2,30.8,57.5,62.5l2.9,40.1C318.5,506.6,313.5,512,307.2,512L307.2,512z"/>
	<linearGradient id="SVGID_4_" gradientUnits="userSpaceOnUse" x1="33.3" y1="402.1721" x2="220.3" y2="402.1721">
		<stop  offset="0" style="stop-color:#3CAAE1"/>
		<stop  offset="1" style="stop-color:#203364"/>
	</linearGradient>
	<path class="st3" d="M116.7,443.8c0.9-3.6,4.2-6.2,8-6.2h34.2c18.5,0,33.5-15,33.5-33.5V390c0-3.3,2.7-6,6-6h21.9
		c-2.2-3.5-3.5-7.6-3.5-12v-23.7h-71.9c-3.8,0-6.1-4.3-3.9-7.5l14.4-20.6c2.2-3.2,3.3-6.9,3.1-10.5c-0.1-5.2-2.6-10.3-7.2-13.6
		l-0.4-0.3c-4.7-3.4-10.5-4.2-15.6-2.8v79c0,11.2-8.1,20.7-19.1,22.4l-21.7,3.4c-14.7,2.3-27.7,9.2-37.6,19.1l-23.2,89.4l-0.4,5.7
		H99L116.7,443.8z"/>
	<linearGradient id="SVGID_5_" gradientUnits="userSpaceOnUse" x1="33.3" y1="452.45" x2="318.0345" y2="452.45">
		<stop  offset="0" style="stop-color:#3CAAE1"/>
		<stop  offset="1" style="stop-color:#203364"/>
	</linearGradient>
	<path class="st4" d="M307.2,512H33.3l3.8-51.7c2.3-31.7,26.1-57.5,57.5-62.5l21.7-3.4c1.5-0.2,3-0.6,4.4-1.2
		c13.4,14.5,33.1,23.6,55,23.6c22,0,41.8-9.2,55.2-23.9c1.6,0.6,3.3,1.1,5,1.4l21.7,3.4c31.4,4.9,55.2,30.8,57.5,62.5l2.9,40.1
		C318.5,506.6,313.5,512,307.2,512L307.2,512z"/>
	<linearGradient id="SVGID_6_" gradientUnits="userSpaceOnUse" x1="33.3" y1="452.55" x2="190.4" y2="452.55">
		<stop  offset="0" style="stop-color:#3CAAE1"/>
		<stop  offset="1" style="stop-color:#203364"/>
	</linearGradient>
	<path class="st5" d="M124.6,437.6h34.2c14.5,0,26.9-9.2,31.6-22.2c-4.8,0.9-9.7,1.4-14.7,1.4c-21.9,0-41.6-9.2-55-23.6
		c-13.1,4.9-40.4,0.3-63.8,23.6l-23.2,89.4l-0.4,5.7H99l17.7-68.2C117.6,440.2,120.9,437.6,124.6,437.6z"/>
	<text transform="matrix(1 0 0 1 -5.9844 225.022)" class="st6 st7">1a44a2</text>
	<linearGradient id="SVGID_7_" gradientUnits="userSpaceOnUse" x1="223.5" y1="452.3507" x2="318.0345" y2="452.3507">
		<stop  offset="0" style="stop-color:#3CAAE1"/>
		<stop  offset="1" style="stop-color:#203364"/>
	</linearGradient>
	<path class="st8" d="M318,500.3l-2.9-40.1c-1.1-15.7-7.6-30.1-17.9-41.3c-23.4-25.4-52.5-21.1-65.3-25.6c-0.1,0-0.1,0-0.1-0.1
		c-0.3-0.1-0.6-0.2-0.9-0.4c-2.3,2.5-4.8,4.8-7.4,7l5.9,0.9c31.4,4.9,55.2,30.8,57.5,62.5l2.9,40.1c0.2,3.4-1.1,6.4-3.3,8.6h20.6
		C313.5,512,318.5,506.6,318,500.3L318,500.3z"/>
	<linearGradient id="SVGID_8_" gradientUnits="userSpaceOnUse" x1="256.1" y1="488.5" x2="271.6" y2="488.5">
		<stop  offset="0" style="stop-color:#3CAAE1"/>
		<stop  offset="1" style="stop-color:#203364"/>
	</linearGradient>
	<path class="st9" d="M263.8,465c-4.3,0-7.7,3.5-7.7,7.7V512h15.5v-39.3C271.5,468.4,268.1,465,263.8,465z"/>
	<g>
		<linearGradient id="SVGID_9_" gradientUnits="userSpaceOnUse" x1="371.9" y1="79.1" x2="443.4999" y2="79.1">
			<stop  offset="0" style="stop-color:#000000"/>
			<stop  offset="1" style="stop-color:#000000"/>
		</linearGradient>
		<path class="st10" d="M402.8,128.1c-4.3,0-7.7-3.5-7.7-7.7V94c0-4.3,3.5-7.7,7.7-7.7h4.9c11.2,0,20.4-9.1,20.4-20.4
			s-9.1-20.4-20.4-20.4c-11.2,0-20.4,9.1-20.4,20.4c0,4.3-3.5,7.7-7.7,7.7c-4.3,0-7.7-3.5-7.7-7.7c0-19.8,16.1-35.8,35.8-35.8
			s35.8,16.1,35.8,35.8c0,18.8-14.6,34.3-33,35.7v18.8C410.5,124.7,407,128.1,402.8,128.1L402.8,128.1z"/>
		<linearGradient id="SVGID_10_" gradientUnits="userSpaceOnUse" x1="395.1" y1="148.75" x2="410.5" y2="148.75">
			<stop  offset="0" style="stop-color:#000000"/>
			<stop  offset="0.1778" style="stop-color:#000000"/>
		</linearGradient>
		<path class="st11" d="M402.8,157.6c-4.3,0-7.7-3.5-7.7-7.7v-2.3c0-4.3,3.5-7.7,7.7-7.7s7.7,3.5,7.7,7.7v2.3
			C410.5,154.1,407,157.6,402.8,157.6z"/>
	</g>
	<linearGradient id="SVGID_11_" gradientUnits="userSpaceOnUse" x1="18.2754" y1="142.6" x2="323.5" y2="142.6">
		<stop  offset="0" style="stop-color:#000000"/>
		<stop  offset="1" style="stop-color:#000000"/>
	</linearGradient>
	<path class="st12" d="M190.6,34.4h-34.5c-40.2,0-75.3,22-93.9,54.5c-25.9,6.8-44.7,30.7-43.9,58.7l3,103.2h302.2v-83.5
		C323.5,93.9,264,34.4,190.6,34.4L190.6,34.4z"/>
	<g>
		<linearGradient id="SVGID_12_" gradientUnits="userSpaceOnUse" x1="10.6" y1="241.35" x2="86.9" y2="241.35">
			<stop  offset="0" style="stop-color:#3CAAE1"/>
			<stop  offset="1" style="stop-color:#203364"/>
		</linearGradient>
		<path class="st13" d="M86.9,268.1H33.7c-12.8,0-23.1-10.4-23.1-23.1v-7.3c0-12.8,10.4-23.1,23.1-23.1h53.2V268.1z"/>
		<linearGradient id="SVGID_13_" gradientUnits="userSpaceOnUse" x1="258.2" y1="241.35" x2="334.5" y2="241.35">
			<stop  offset="0" style="stop-color:#3CAAE1"/>
			<stop  offset="1" style="stop-color:#203364"/>
		</linearGradient>
		<path class="st14" d="M258.2,268.1h53.2c12.8,0,23.1-10.4,23.1-23.1v-7.3c0-12.8-10.4-23.1-23.1-23.1h-53.2V268.1z"/>
		<linearGradient id="SVGID_14_" gradientUnits="userSpaceOnUse" x1="53.8" y1="235.3248" x2="297.6" y2="235.3248">
			<stop  offset="0" style="stop-color:#3CAAE1"/>
			<stop  offset="1" style="stop-color:#203364"/>
		</linearGradient>
		<path class="st15" d="M297.6,232.5c0,76.3-77,120.1-121.9,120.1S53.8,308.8,53.8,232.5c0-48.7,13.5-85.6,35.5-110.3
			c4.9-5.6,13.6-5.5,18.5,0.1c5,5.7,10.3,11.1,16,16c6.8,5.8,14.8,11.1,23.7,11.2c5.9,0.1,12.1-3.1,15.3-7.9
			c2.7-3.9,7.9-5.2,12.2-3.1c28.4,13.3,59.7,21.4,91.1,23.2c12.6,0.7,23.4,9.6,26.2,21.9C295.7,198.3,297.6,214.6,297.6,232.5
			L297.6,232.5z"/>
	</g>
	<linearGradient id="SVGID_15_" gradientUnits="userSpaceOnUse" x1="79.1" y1="257.85" x2="297.4144" y2="257.85">
		<stop  offset="0" style="stop-color:#3CAAE1"/>
		<stop  offset="1" style="stop-color:#203364"/>
	</linearGradient>
	<path class="st16" d="M292.3,183.6c-2.3-9.8-9.5-17.4-18.8-20.5c2.8,13.6,4.2,28.5,4.2,44.8c0,77.9-78.6,122.6-124.5,122.6
		c-21.4,0-49.8-9.7-74.1-27.9c26.5,32.4,67.9,50,96.4,50c45,0,121.9-43.8,121.9-120.1C297.6,214.6,295.7,198.3,292.3,183.6
		L292.3,183.6z"/>
	<linearGradient id="SVGID_16_" gradientUnits="userSpaceOnUse" x1="12.3628" y1="393.5131" x2="232.3" y2="393.5131">
		<stop  offset="0" style="stop-color:#3CAAE1"/>
		<stop  offset="1" style="stop-color:#203364"/>
	</linearGradient>
	<path class="st17" d="M76.9,512l22.2-85.5c0.9-3.7,4.2-6.2,8-6.2h34.1c18.5,0,33.5-15,33.5-33.5v-14.1c0-3.3,2.7-6,6-6H214
		c9.9,0,18.2-7.8,18.3-17.7c0-5-2-9.5-5.2-12.8c-3.2-3.2-7.7-5.2-12.6-5.2h-87.2c-3.8,0-6.1-4.3-3.9-7.5l14.4-20.6
		c2.2-3.2,3.3-6.9,3.1-10.5c-0.1-5.2-2.6-10.3-7.2-13.6l-0.4-0.3c-8.1-5.9-19.4-4.1-25.2,4c-10.3,14.3-55.5,76.9-60,83.1L12.6,502.7
		c-1.2,4.7,2.3,9.3,7.2,9.3H76.9z"/>
</g>
<g>
	<linearGradient id="SVGID_17_" gradientUnits="userSpaceOnUse" x1="132.6" y1="229" x2="147.6" y2="229">
		<stop  offset="0" style="stop-color:#000000"/>
		<stop  offset="1" style="stop-color:#000000"/>
	</linearGradient>
	<path class="st18" d="M140.1,240.7c4.1,0,7.5-3.4,7.5-7.5v-8.4c0-4.1-3.4-7.5-7.5-7.5s-7.5,3.4-7.5,7.5v8.4
		C132.6,237.3,136,240.7,140.1,240.7z"/>
	<linearGradient id="SVGID_18_" gradientUnits="userSpaceOnUse" x1="244.7" y1="229" x2="259.7" y2="229">
		<stop  offset="0" style="stop-color:#000000"/>
		<stop  offset="1" style="stop-color:#000000"/>
	</linearGradient>
	<path class="st19" d="M252.2,240.7c4.1,0,7.5-3.4,7.5-7.5v-8.4c0-4.1-3.4-7.5-7.5-7.5s-7.5,3.4-7.5,7.5v8.4
		C244.7,237.3,248,240.7,252.2,240.7L252.2,240.7z"/>
	<linearGradient id="SVGID_19_" gradientUnits="userSpaceOnUse" x1="171.9667" y1="268.375" x2="224.5333" y2="268.375">
		<stop  offset="0" style="stop-color:#000000"/>
		<stop  offset="1" style="stop-color:#000000"/>
	</linearGradient>
	<path class="st20" d="M183.2,277.6c10.2-6,19.7-6,30,0c1.2,0.7,2.5,1,3.8,1c2.6,0,5.1-1.3,6.5-3.7c2.1-3.6,0.9-8.2-2.7-10.3
		c-14.7-8.6-30.3-8.6-45.1,0c-3.6,2.1-4.8,6.7-2.7,10.3C175,278.4,179.6,279.6,183.2,277.6L183.2,277.6z"/>
</g>
</svg>
