<svg id="Layer_1" data-name="Layer 1" xmlns="http://www.w3.org/2000/svg" viewBox="0 0 554.62 108.58"><defs><style>.cls-1{fill:#3baae0;}.cls-2{fill:#174897;}</style></defs><polygon class="cls-1" points="47.59 28.63 34.07 47.45 0 0.02 27.02 0.02 47.59 28.63"/><polygon class="cls-1" points="47.59 79.93 27.02 108.56 0 108.56 34.07 61.13 47.59 79.93"/><polygon class="cls-2" points="73.88 65.26 104.98 108.56 77.97 108.56 38.99 54.29 77.97 0.02 104.98 0.02 73.88 43.33 66 54.29 73.88 65.26"/><path class="cls-2" d="M217,121.5a32.68,32.68,0,0,1-32.64,32.64H135V116.45h21.93V132.2h27.45a10.7,10.7,0,1,0,0-21.39H94.84L87,99.85l7.88-11h82.94a10.7,10.7,0,0,0,0-21.39h-20.9V83.22H135V45.56h42.83a32.6,32.6,0,0,1,27.15,50.66A32.55,32.55,0,0,1,217,121.5Z" transform="translate(-22.43 -45.56)"/><path class="cls-2" d="M446.09,86.68a15.78,15.78,0,0,0-15.09,0A13.74,13.74,0,0,0,425.71,92a16.86,16.86,0,0,0,0,15.63A13.68,13.68,0,0,0,431,113a15.78,15.78,0,0,0,15.09,0,13.74,13.74,0,0,0,5.29-5.35,16.86,16.86,0,0,0,0-15.63A13.81,13.81,0,0,0,446.09,86.68Z" transform="translate(-22.43 -45.56)"/><path class="cls-2" d="M492.36,85.16h-8.89V101.6h8.89q4.92,0,7.48-2.16a8.5,8.5,0,0,0,0-12.16Q497.28,85.17,492.36,85.16Z" transform="translate(-22.43 -45.56)"/><path class="cls-1" d="M321.94,76.27l23.44,28.63V63.38H233.68v72.93h79.23v-60ZM283.41,85H258.69V97.49h21.83v8.75H258.69v17.18H247.78V76.27h35.63Zm18.32,38.39H290.82V76.27h10.91Z" transform="translate(-22.43 -45.56)"/><path class="cls-2" d="M356.16,63.38v60h-9L323.69,94.79v41.52H577.05V63.38Zm21.19,44.28A13.56,13.56,0,0,0,382.7,113a15.76,15.76,0,0,0,7.82,1.92,15,15,0,0,0,11.85-5.59l7,6.47a21.76,21.76,0,0,1-8.36,6.26,27.63,27.63,0,0,1-11.11,2.16,27.09,27.09,0,0,1-13-3.13,23.5,23.5,0,0,1-9.16-8.69,25.37,25.37,0,0,1,0-25.13,23.5,23.5,0,0,1,9.16-8.69,29.24,29.24,0,0,1,24.19-1,22.19,22.19,0,0,1,8.32,6.19l-7,6.47a15.07,15.07,0,0,0-11.85-5.52,15.76,15.76,0,0,0-7.82,1.92A13.63,13.63,0,0,0,377.35,92a16.86,16.86,0,0,0,0,15.63ZM461,112.34a23.84,23.84,0,0,1-9.23,8.72,29.15,29.15,0,0,1-26.44,0,23.43,23.43,0,0,1-9.23-8.72,25,25,0,0,1,0-25,23.43,23.43,0,0,1,9.23-8.72,29.15,29.15,0,0,1,26.44,0A24.4,24.4,0,0,1,461,112.34Zm41.62,11.08-9.09-13.13h-10v13.13H472.56V76.27H493a26.23,26.23,0,0,1,10.88,2.09,15.57,15.57,0,0,1,9.6,15,15.38,15.38,0,0,1-9.7,14.89l10.57,15.15Zm57.87-21a16,16,0,0,1-7.11,5.93,26.57,26.57,0,0,1-10.88,2H533v13H522.07V76.27h20.41a26.23,26.23,0,0,1,10.88,2.09,16.91,16.91,0,0,1,7.11,24.08Z" transform="translate(-22.43 -45.56)"/><path class="cls-2" d="M541.87,85.16H533v16.37h8.89q4.92,0,7.48-2.12a7.4,7.4,0,0,0,2.56-6,7.47,7.47,0,0,0-2.56-6.1Q546.79,85.17,541.87,85.16Z" transform="translate(-22.43 -45.56)"/></svg>